<svg width="269" height="81" viewBox="0 0 269 81" fill="none" xmlns="http://www.w3.org/2000/svg">
<g clip-path="url(#clip0_2683_293)">
<path d="M232.959 47.9763L238.785 51.9217C236.894 54.7509 232.371 59.605 224.553 59.605C214.843 59.605 207.613 51.9738 207.613 42.2659C207.613 31.9355 214.92 24.9271 223.735 24.9271C232.601 24.9271 236.945 32.0909 238.35 35.9584L239.117 37.9313L216.274 47.535C218.012 51.0134 220.721 52.7784 224.553 52.7784C228.386 52.7784 231.043 50.8575 232.959 47.9763ZM215.048 41.7213L230.302 35.2838C229.459 33.1296 226.955 31.5984 223.965 31.5984C220.158 31.5984 214.869 35.0246 215.048 41.7213Z" fill="#FF302F"/>
<path d="M196.601 7.25085H203.959V58.0217H196.601V7.25085Z" fill="#20B15A"/>
<path d="M185 26.2767H192.104V57.1129C192.104 69.9092 184.668 75.1783 175.879 75.1783C167.6 75.1783 162.618 69.52 160.753 64.9258L167.268 62.1742C168.443 65.0033 171.28 68.3521 175.879 68.3521C181.525 68.3521 185 64.7958 185 58.1512V55.6596H184.745C183.058 57.7358 179.839 59.6046 175.751 59.6046C167.217 59.6046 159.398 52.0512 159.398 42.3179C159.398 32.5321 167.217 24.9012 175.751 24.9012C179.814 24.9012 183.058 26.7442 184.745 28.7687H185V26.2767ZM185.511 42.3179C185.511 36.1921 181.5 31.7275 176.39 31.7275C171.228 31.7275 166.885 36.1921 166.885 42.3179C166.885 48.3654 171.228 52.7521 176.39 52.7521C181.5 52.7783 185.512 48.3654 185.512 42.3179" fill="#3686F7"/>
<path d="M119.003 42.1879C119.003 52.1813 111.338 59.5267 101.935 59.5267C92.5324 59.5267 84.867 52.1554 84.867 42.1879C84.867 32.1429 92.5324 24.8234 101.935 24.8234C111.338 24.8234 119.003 32.1429 119.003 42.1879ZM111.542 42.1879C111.542 35.9588 107.096 31.6754 101.935 31.6754C96.7738 31.6754 92.3277 35.9588 92.3277 42.1879C92.3277 48.3654 96.7738 52.7004 101.935 52.7004C107.096 52.7004 111.542 48.3654 111.542 42.1879Z" fill="#FF302F"/>
<path d="M156.281 42.2659C156.281 52.2592 148.616 59.6046 139.214 59.6046C129.811 59.6046 122.146 52.2588 122.146 42.2659C122.146 32.2209 129.811 24.9271 139.214 24.9271C148.616 24.9271 156.281 32.195 156.281 42.2659ZM148.795 42.2659C148.795 36.0367 144.349 31.7534 139.188 31.7534C134.026 31.7534 129.581 36.0367 129.581 42.2659C129.581 48.4434 134.027 52.7784 139.188 52.7784C144.375 52.7784 148.795 48.4175 148.795 42.2659Z" fill="#FFBA40"/>
<path d="M56.8123 51.9997C46.1064 51.9997 37.7261 43.2263 37.7261 32.3505C37.7261 21.4751 46.1064 12.7017 56.8123 12.7017C62.5869 12.7017 66.8025 15.0118 69.9197 17.9709L75.0557 12.7538C70.7121 8.523 64.9121 5.30383 56.8123 5.30383C42.1464 5.30425 29.8052 17.4522 29.8052 32.3505C29.8052 47.2488 42.1464 59.3972 56.8123 59.3972C64.7333 59.3972 70.7121 56.7497 75.3879 51.818C80.1912 46.938 81.6731 40.0855 81.6731 34.5309C81.6731 32.7917 81.4689 31.0009 81.2388 29.6772H56.8123V36.893H74.2124C73.7013 41.4097 72.2961 44.4984 70.2265 46.6005C67.7225 49.1705 63.7624 51.9997 56.8123 51.9997Z" fill="#3686F7"/>
</g>
<defs>
<clipPath id="clip0_2683_293">
<rect width="210" height="70" fill="white" transform="translate(29.5 5.19629)"/>
</clipPath>
</defs>
</svg>
